<svg width="83" height="16" viewBox="0 0 83 16" fill="none" xmlns="http://www.w3.org/2000/svg">
<path d="M5.71875 5.56534H6.98864C6.95028 4.16761 5.71449 3.15341 3.94176 3.15341C2.19034 3.15341 0.848011 4.15483 0.848011 5.65909C0.848011 6.87358 1.71733 7.58523 3.11932 7.96449L4.15057 8.24574C5.08381 8.4929 5.80398 8.79972 5.80398 9.57528C5.80398 10.4276 4.99006 10.9901 3.86932 10.9901C2.85511 10.9901 2.01136 10.5384 1.93466 9.58807H0.613636C0.698864 11.169 1.92188 12.1449 3.87784 12.1449C5.92756 12.1449 7.10795 11.0668 7.10795 9.58807C7.10795 8.01562 5.70597 7.40625 4.59801 7.13352L3.74574 6.91193C3.06392 6.73722 2.15625 6.41761 2.16051 5.58239C2.16051 4.84091 2.83807 4.29119 3.91193 4.29119C4.91335 4.29119 5.625 4.75994 5.71875 5.56534ZM11.4002 12.1321C12.8278 12.1321 13.8377 11.429 14.1275 10.3636L12.9215 10.1463C12.6914 10.7642 12.1374 11.0795 11.413 11.0795C10.3221 11.0795 9.58913 10.3722 9.55504 9.1108H14.2085V8.65909C14.2085 6.29403 12.7937 5.36932 11.3107 5.36932C9.48686 5.36932 8.28516 6.75852 8.28516 8.76989C8.28516 10.8026 9.46982 12.1321 11.4002 12.1321ZM9.5593 8.15625C9.61044 7.22727 10.2837 6.42188 11.3192 6.42188C12.3079 6.42188 12.9556 7.15483 12.9599 8.15625H9.5593ZM18.4432 12.1321C19.8707 12.1321 20.8807 11.429 21.1705 10.3636L19.9645 10.1463C19.7344 10.7642 19.1804 11.0795 18.456 11.0795C17.3651 11.0795 16.6321 10.3722 16.598 9.1108H21.2514V8.65909C21.2514 6.29403 19.8366 5.36932 18.3537 5.36932C16.5298 5.36932 15.3281 6.75852 15.3281 8.76989C15.3281 10.8026 16.5128 12.1321 18.4432 12.1321ZM16.6023 8.15625C16.6534 7.22727 17.3267 6.42188 18.3622 6.42188C19.3509 6.42188 19.9986 7.15483 20.0028 8.15625H16.6023ZM27.652 12H28.9815L30.8182 5.46307H30.8864L32.723 12H34.0483L36.473 3.27273H35.0838L33.3878 10.0355H33.3068L31.5384 3.27273H30.1662L28.3977 10.0312H28.3168L26.6165 3.27273H25.2315L27.652 12ZM39.6839 12.1321C41.5291 12.1321 42.7351 10.7812 42.7351 8.7571C42.7351 6.72017 41.5291 5.36932 39.6839 5.36932C37.8388 5.36932 36.6328 6.72017 36.6328 8.7571C36.6328 10.7812 37.8388 12.1321 39.6839 12.1321ZM39.6882 11.0625C38.4822 11.0625 37.9197 10.0099 37.9197 8.75284C37.9197 7.5 38.4822 6.43466 39.6882 6.43466C40.8857 6.43466 41.4482 7.5 41.4482 8.75284C41.4482 10.0099 40.8857 11.0625 39.6882 11.0625ZM44.1573 12H45.4315V8.00284C45.4315 7.14631 46.092 6.52841 46.9954 6.52841C47.2596 6.52841 47.5579 6.57528 47.6602 6.60511V5.38636C47.5323 5.36932 47.2809 5.35653 47.119 5.35653C46.3519 5.35653 45.6957 5.79119 45.457 6.49432H45.3888V5.45455H44.1573V12ZM48.7628 12H50.0369V9.67756L50.6719 9.04261L52.8963 12H54.4602L51.6307 8.26278L54.2812 5.45455H52.7557L50.1477 8.22443H50.0369V3.27273H48.7628V12ZM60.3473 7.05256C60.0831 6.03409 59.2862 5.36932 57.8714 5.36932C56.3928 5.36932 55.3445 6.14915 55.3445 7.30824C55.3445 8.23722 55.907 8.85511 57.1342 9.12784L58.2422 9.37074C58.8729 9.51136 59.1669 9.79261 59.1669 10.2017C59.1669 10.7088 58.6257 11.1051 57.7905 11.1051C57.0277 11.1051 56.5376 10.777 56.3842 10.1335L55.1527 10.321C55.3658 11.4801 56.3288 12.1321 57.799 12.1321C59.38 12.1321 60.4751 11.2926 60.4751 10.108C60.4751 9.18324 59.8871 8.61222 58.6854 8.33523L57.6456 8.09659C56.9254 7.92614 56.6143 7.68324 56.6186 7.24006C56.6143 6.73722 57.1598 6.37926 57.8842 6.37926C58.6768 6.37926 59.0433 6.81818 59.1925 7.2571L60.3473 7.05256Z" fill="#3730A3"/>
<path d="M70.3333 8H79.6667" stroke="#3730A3" stroke-linecap="round" stroke-linejoin="round"/>
<path d="M75 3.33337L79.6667 8.00004L75 12.6667" stroke="#3730A3" stroke-linecap="round" stroke-linejoin="round"/>
</svg>
